<svg xmlns="http://www.w3.org/2000/svg" xmlns:xlink="http://www.w3.org/1999/xlink" width="500" zoomAndPan="magnify" viewBox="0 0 375 374.999991" height="500" preserveAspectRatio="xMidYMid meet" version="1.0"><defs><g/><clipPath id="bb720f236d"><path d="M 134.453125 129.550781 L 240.203125 129.550781 L 240.203125 235.300781 L 134.453125 235.300781 Z M 134.453125 129.550781 " clip-rule="nonzero"/></clipPath></defs><g clip-path="url(#bb720f236d)"><path fill="#000000" d="M 185.125 129.550781 L 185.125 169.207031 L 189.53125 169.207031 L 189.53125 129.550781 Z M 180.71875 136.691406 C 160.5 139.601562 144.496094 155.597656 141.578125 175.816406 L 150.457031 175.816406 C 153.210938 160.460938 165.355469 148.34375 180.71875 145.589844 Z M 193.9375 136.691406 L 193.9375 145.589844 C 209.296875 148.335938 221.441406 160.460938 224.195312 175.816406 L 233.074219 175.816406 C 230.160156 155.597656 214.152344 139.601562 193.9375 136.691406 Z M 180.71875 156.855469 C 171.449219 159.257812 164.132812 166.554688 161.734375 175.816406 L 171.042969 175.816406 C 172.84375 171.417969 176.320312 167.886719 180.71875 166.097656 Z M 193.9375 156.855469 L 193.9375 166.097656 C 198.34375 167.886719 201.820312 171.417969 203.609375 175.816406 L 212.929688 175.816406 C 210.527344 166.554688 203.203125 159.257812 193.9375 156.855469 Z M 187.335938 175.816406 C 183.6875 175.816406 180.71875 178.773438 180.71875 182.425781 C 180.71875 186.074219 183.6875 189.035156 187.335938 189.035156 C 190.984375 189.035156 193.824219 186.074219 193.824219 182.425781 C 193.824219 178.773438 190.984375 175.816406 187.335938 175.816406 Z M 134.453125 180.222656 L 134.453125 184.628906 L 174.109375 184.628906 L 174.109375 180.222656 Z M 200.546875 180.222656 L 200.546875 184.628906 L 240.203125 184.628906 L 240.203125 180.222656 Z M 141.59375 189.035156 C 144.503906 209.25 160.5 225.253906 180.71875 228.171875 L 180.71875 219.292969 C 165.363281 216.539062 153.246094 204.394531 150.492188 189.035156 Z M 161.722656 189.035156 C 164.125 198.292969 171.449219 205.589844 180.71875 207.992188 L 180.71875 198.75 C 176.3125 196.960938 172.835938 193.429688 171.042969 189.035156 Z M 224.160156 189.035156 C 221.40625 204.394531 209.289062 216.539062 193.9375 219.292969 L 193.9375 228.171875 C 214.152344 225.253906 230.148438 209.25 233.066406 189.035156 Z M 203.652344 189.035156 C 201.863281 193.441406 198.332031 196.917969 193.9375 198.707031 L 193.9375 208.027344 C 203.195312 205.625 210.492188 198.300781 212.894531 189.035156 Z M 185.125 195.644531 L 185.125 235.300781 L 189.53125 235.300781 L 189.53125 195.644531 Z M 185.125 195.644531 " fill-opacity="1" fill-rule="nonzero"/></g><g fill="#000000" fill-opacity="1"><g transform="translate(136.808617, 160.402489)"><g><path d="M -8.671875 -34.296875 L -6.46875 -32.59375 L -11.828125 -25.703125 L 8 -10.296875 L 5.984375 -7.71875 L -13.84375 -23.125 L -19.203125 -16.21875 L -21.40625 -17.921875 Z M -8.671875 -34.296875 "/></g></g></g><g fill="#000000" fill-opacity="1"><g transform="translate(147.062125, 145.374741)"><g><path d="M 21.265625 -13.34375 L 18.296875 -11.46875 L 12.0625 -16.59375 L 1.984375 -10.28125 L 3.859375 -2.421875 L 0.9375 -0.59375 L -5.625 -29.390625 L -1.78125 -31.796875 Z M -2.15625 -27.59375 L 1.28125 -13.09375 L 9.796875 -18.421875 L -1.75 -27.84375 Z M -2.15625 -27.59375 "/></g></g></g><g fill="#000000" fill-opacity="1"><g transform="translate(164.622931, 133.305862)"><g><path d="M 4.140625 -0.796875 L -1.078125 -28.1875 L 8.875 -30.078125 C 10.71875 -30.421875 12.316406 -30.410156 13.671875 -30.046875 C 15.035156 -29.691406 16.132812 -29.019531 16.96875 -28.03125 C 17.800781 -27.039062 18.363281 -25.789062 18.65625 -24.28125 C 18.976562 -22.582031 18.820312 -21.097656 18.1875 -19.828125 C 17.550781 -18.566406 16.382812 -17.488281 14.6875 -16.59375 L 14.765625 -16.1875 C 15.722656 -16.007812 16.550781 -15.597656 17.25 -14.953125 C 17.957031 -14.316406 18.691406 -13.296875 19.453125 -11.890625 L 23.484375 -4.46875 L 20.171875 -3.84375 L 15.84375 -11.703125 C 15.320312 -12.628906 14.796875 -13.332031 14.265625 -13.8125 C 13.734375 -14.289062 13.117188 -14.59375 12.421875 -14.71875 C 11.722656 -14.84375 10.875 -14.8125 9.875 -14.625 L 5.03125 -13.703125 L 7.375 -1.40625 Z M 11.15625 -17.703125 C 12.875 -18.023438 14.070312 -18.660156 14.75 -19.609375 C 15.4375 -20.566406 15.625 -21.859375 15.3125 -23.484375 C 15 -25.109375 14.347656 -26.238281 13.359375 -26.875 C 12.378906 -27.507812 11.03125 -27.664062 9.3125 -27.34375 L 2.671875 -26.078125 L 4.515625 -16.4375 Z M 11.15625 -17.703125 "/></g></g></g><g fill="#000000" fill-opacity="1"><g transform="translate(184.766269, 128.120375)"><g><path d="M 14.296875 3.359375 C 11.992188 2.878906 10.070312 1.9375 8.53125 0.53125 C 7 -0.875 5.957031 -2.726562 5.40625 -5.03125 C 4.863281 -7.34375 4.90625 -10.035156 5.53125 -13.109375 C 6.164062 -16.160156 7.226562 -18.628906 8.71875 -20.515625 C 10.21875 -22.410156 12.003906 -23.6875 14.078125 -24.34375 C 16.160156 -25.007812 18.425781 -25.09375 20.875 -24.59375 C 23.488281 -24.050781 25.539062 -23.132812 27.03125 -21.84375 C 28.519531 -20.550781 29.421875 -18.898438 29.734375 -16.890625 L 27.375 -16.09375 L 26.90625 -16.1875 C 26.5 -17.75 25.753906 -18.960938 24.671875 -19.828125 C 23.585938 -20.691406 22.125 -21.316406 20.28125 -21.703125 C 14.289062 -22.941406 10.523438 -19.84375 8.984375 -12.40625 C 8.191406 -8.519531 8.363281 -5.53125 9.5 -3.4375 C 10.644531 -1.351562 12.570312 -0.03125 15.28125 0.53125 C 17.769531 1.039062 19.75 0.859375 21.21875 -0.015625 C 22.695312 -0.890625 23.6875 -2.546875 24.1875 -4.984375 L 24.6875 -7.40625 L 16.921875 -9 L 17.453125 -11.5625 L 28.34375 -9.3125 L 25.34375 5.234375 L 22.375 4.609375 L 23.125 0.953125 L 22.75 0.78125 C 21.738281 2.039062 20.519531 2.875 19.09375 3.28125 C 17.664062 3.695312 16.066406 3.722656 14.296875 3.359375 Z M 14.296875 3.359375 "/></g></g></g><g fill="#000000" fill-opacity="1"><g transform="translate(208.3088, 132.523059)"><g><path d="M 13.46875 -6.890625 L 7.765625 1.84375 L 19.65625 9.625 L 18.171875 11.890625 L 3.53125 2.3125 L 18.796875 -21.03125 L 33.1875 -11.625 L 31.703125 -9.359375 L 20.0625 -16.96875 L 14.953125 -9.15625 L 25.21875 -2.453125 L 23.734375 -0.1875 Z M 13.46875 -6.890625 "/></g></g></g><g fill="#000000" fill-opacity="1"><g transform="translate(224.665506, 142.40268)"><g><path d="M 35.390625 0.078125 L 33.1875 1.78125 L 27.828125 -5.109375 L 8 10.296875 L 5.984375 7.71875 L 25.8125 -7.6875 L 20.453125 -14.59375 L 22.65625 -16.296875 Z M 35.390625 0.078125 "/></g></g></g><g fill="#000000" fill-opacity="1"><g transform="translate(106.885066, 210.784986)"><g><path d="M 30.34375 2.375 C 31.0625 4.09375 31.363281 5.691406 31.25 7.171875 C 31.144531 8.660156 30.65625 9.96875 29.78125 11.09375 C 28.90625 12.226562 27.691406 13.113281 26.140625 13.75 C 24.578125 14.394531 23.085938 14.628906 21.671875 14.453125 C 20.265625 14.273438 18.992188 13.703125 17.859375 12.734375 C 16.722656 11.765625 15.796875 10.421875 15.078125 8.703125 L 12.59375 2.671875 L 2.796875 6.734375 L 1.5625 3.78125 L 26.625 -6.609375 Z M 17.578125 7.5625 C 19.023438 11.039062 21.453125 12.070312 24.859375 10.65625 C 28.273438 9.25 29.257812 6.804688 27.8125 3.328125 L 25.359375 -2.609375 L 15.125 1.625 Z M 17.578125 7.5625 "/></g></g></g><g fill="#000000" fill-opacity="1"><g transform="translate(119.242854, 238.146364)"><g><path d="M 2.8125 2.96875 L 22.484375 -15.703125 L 29.28125 -8.546875 C 30.53125 -7.222656 31.363281 -5.90625 31.78125 -4.59375 C 32.195312 -3.289062 32.21875 -2.035156 31.84375 -0.828125 C 31.476562 0.367188 30.753906 1.484375 29.671875 2.515625 C 28.453125 3.671875 27.15625 4.316406 25.78125 4.453125 C 24.40625 4.597656 22.90625 4.210938 21.28125 3.296875 L 21 3.5625 C 21.363281 4.445312 21.46875 5.347656 21.3125 6.265625 C 21.15625 7.179688 20.703125 8.3125 19.953125 9.65625 L 16 16.859375 L 13.75 14.484375 L 17.890625 6.796875 C 18.378906 5.898438 18.679688 5.101562 18.796875 4.40625 C 18.921875 3.71875 18.847656 3.054688 18.578125 2.421875 C 18.304688 1.785156 17.832031 1.109375 17.15625 0.390625 L 13.84375 -3.078125 L 5.015625 5.296875 Z M 20.34375 -0.171875 C 21.507812 1.054688 22.660156 1.703125 23.796875 1.765625 C 24.941406 1.828125 26.097656 1.300781 27.265625 0.1875 C 28.429688 -0.914062 29.015625 -2.039062 29.015625 -3.1875 C 29.015625 -4.332031 28.429688 -5.519531 27.265625 -6.75 L 22.734375 -11.515625 L 15.8125 -4.9375 Z M 20.34375 -0.171875 "/></g></g></g><g fill="#000000" fill-opacity="1"><g transform="translate(140.931698, 259.585932)"><g><path d="M 22.09375 10.390625 L 19 8.9375 L 19.90625 1.140625 L 9.453125 -3.78125 L 4 1.875 L 0.96875 0.453125 L 21.09375 -20.0625 L 25.078125 -18.1875 Z M 21.4375 -16.265625 L 11.375 -5.8125 L 20.21875 -1.65625 L 21.859375 -16.0625 Z M 21.4375 -16.265625 "/></g></g></g><g fill="#000000" fill-opacity="1"><g transform="translate(169.424685, 271.921892)"><g><path d="M 14.953125 1.25 C 12.585938 1.113281 10.503906 0.445312 8.703125 -0.75 C 6.898438 -1.945312 5.535156 -3.617188 4.609375 -5.765625 C 3.679688 -7.921875 3.300781 -10.460938 3.46875 -13.390625 C 3.632812 -16.316406 4.300781 -18.796875 5.46875 -20.828125 C 6.632812 -22.859375 8.175781 -24.363281 10.09375 -25.34375 C 12.019531 -26.320312 14.164062 -26.742188 16.53125 -26.609375 C 19.0625 -26.472656 21.140625 -25.875 22.765625 -24.8125 C 24.398438 -23.757812 25.523438 -22.253906 26.140625 -20.296875 L 24.046875 -19.0625 L 23.578125 -19.078125 C 22.929688 -20.671875 22.03125 -21.820312 20.875 -22.53125 C 19.726562 -23.238281 18.226562 -23.644531 16.375 -23.75 C 14.675781 -23.851562 13.140625 -23.5625 11.765625 -22.875 C 10.398438 -22.195312 9.28125 -21.054688 8.40625 -19.453125 C 7.53125 -17.847656 7.019531 -15.765625 6.875 -13.203125 C 6.726562 -10.628906 7 -8.5 7.6875 -6.8125 C 8.375 -5.125 9.359375 -3.863281 10.640625 -3.03125 C 11.921875 -2.195312 13.410156 -1.726562 15.109375 -1.625 C 17.066406 -1.519531 18.695312 -1.867188 20 -2.671875 C 21.300781 -3.484375 22.304688 -4.863281 23.015625 -6.8125 L 23.484375 -6.78125 L 25.5625 -5.59375 C 24.78125 -3.25 23.484375 -1.484375 21.671875 -0.296875 C 19.867188 0.878906 17.628906 1.394531 14.953125 1.25 Z M 14.953125 1.25 "/></g></g></g><g fill="#000000" fill-opacity="1"><g transform="translate(201.129916, 272.403156)"><g><path d="M 12.171875 -32.1875 L 12.96875 -29.609375 L 4.84375 -27.09375 L 12.09375 -3.765625 L 9.078125 -2.8125 L 1.828125 -26.140625 L -6.296875 -23.625 L -7.09375 -26.203125 Z M 12.171875 -32.1875 "/></g></g></g><g fill="#000000" fill-opacity="1"><g transform="translate(225.214641, 263.775737)"><g><path d="M 6.234375 -3.796875 L 3.5 -2.140625 L -10.625 -25.296875 L -7.890625 -26.953125 Z M 6.234375 -3.796875 "/></g></g></g><g fill="#000000" fill-opacity="1"><g transform="translate(238.72341, 256.106705)"><g><path d="M 10.4375 -10.78125 C 8.820312 -9.03125 6.988281 -7.835938 4.9375 -7.203125 C 2.882812 -6.578125 0.726562 -6.582031 -1.53125 -7.21875 C -3.789062 -7.863281 -6 -9.175781 -8.15625 -11.15625 C -10.320312 -13.144531 -11.816406 -15.234375 -12.640625 -17.421875 C -13.460938 -19.617188 -13.644531 -21.769531 -13.1875 -23.875 C -12.738281 -25.988281 -11.707031 -27.921875 -10.09375 -29.671875 C -8.382812 -31.535156 -6.609375 -32.757812 -4.765625 -33.34375 C -2.921875 -33.925781 -1.039062 -33.84375 0.875 -33.09375 L 0.5 -30.671875 L 0.1875 -30.328125 C -1.445312 -30.835938 -2.90625 -30.875 -4.1875 -30.4375 C -5.476562 -30 -6.75 -29.097656 -8 -27.734375 C -9.15625 -26.472656 -9.898438 -25.097656 -10.234375 -23.609375 C -10.566406 -22.117188 -10.390625 -20.53125 -9.703125 -18.84375 C -9.023438 -17.15625 -7.738281 -15.4375 -5.84375 -13.6875 C -3.945312 -11.945312 -2.128906 -10.804688 -0.390625 -10.265625 C 1.347656 -9.722656 2.945312 -9.679688 4.40625 -10.140625 C 5.863281 -10.609375 7.171875 -11.472656 8.328125 -12.734375 C 9.648438 -14.171875 10.40625 -15.648438 10.59375 -17.171875 C 10.789062 -18.691406 10.367188 -20.335938 9.328125 -22.109375 L 9.640625 -22.46875 L 11.875 -23.3125 C 13.195312 -21.226562 13.738281 -19.109375 13.5 -16.953125 C 13.269531 -14.804688 12.25 -12.75 10.4375 -10.78125 Z M 10.4375 -10.78125 "/></g></g></g><g fill="#000000" fill-opacity="1"><g transform="translate(259.281365, 231.841826)"><g><path d="M -9.171875 -11.515625 L 0.25 -7.765625 L 5.375 -20.59375 L 7.828125 -19.609375 L 1.515625 -3.796875 L -23.671875 -13.84375 L -17.46875 -29.375 L -15.03125 -28.40625 L -20.046875 -15.859375 L -11.625 -12.5 L -7.203125 -23.5625 L -4.75 -22.578125 Z M -9.171875 -11.515625 "/></g></g></g></svg>